<svg width="20" height="20" viewBox="0 0 20 20" fill="none" xmlns="http://www.w3.org/2000/svg">
<path d="M4.16675 6.66675C2.78341 6.66675 1.66675 7.78341 1.66675 9.16675V15.8334C1.66675 17.2167 2.78341 18.3334 4.16675 18.3334H5.41675C6.33341 18.3334 7.08341 17.5834 7.08341 16.6667V8.33341C7.08341 7.41675 6.33341 6.66675 5.41675 6.66675H4.16675ZM5.00008 14.1667C5.00008 14.5084 4.71675 14.7917 4.37508 14.7917C4.03341 14.7917 3.75008 14.5084 3.75008 14.1667V10.8334C3.75008 10.4917 4.03341 10.2084 4.37508 10.2084C4.71675 10.2084 5.00008 10.4917 5.00008 10.8334V14.1667Z" fill="white" fill-opacity="0.5"/>
<path d="M15.8333 1.66675H10.8333C9.44992 1.66675 8.33325 2.78341 8.33325 4.16675V15.8334C8.33325 17.2167 9.44992 18.3334 10.8333 18.3334H11.2499C11.4833 18.3334 11.6666 18.1501 11.6666 17.9167V15.0001C11.6666 14.5417 12.0416 14.1667 12.4999 14.1667H14.1666C14.6249 14.1667 14.9999 14.5417 14.9999 15.0001V17.9167C14.9999 18.1501 15.1833 18.3334 15.4166 18.3334H15.8333C17.2166 18.3334 18.3333 17.2167 18.3333 15.8334V4.16675C18.3333 2.78341 17.2166 1.66675 15.8333 1.66675ZM12.2916 10.8334C12.2916 11.1751 12.0083 11.4584 11.6666 11.4584C11.3249 11.4584 11.0416 11.1751 11.0416 10.8334V6.66675C11.0416 6.32508 11.3249 6.04175 11.6666 6.04175C12.0083 6.04175 12.2916 6.32508 12.2916 6.66675V10.8334ZM15.6249 10.8334C15.6249 11.1751 15.3416 11.4584 14.9999 11.4584C14.6583 11.4584 14.3749 11.1751 14.3749 10.8334V6.66675C14.3749 6.32508 14.6583 6.04175 14.9999 6.04175C15.3416 6.04175 15.6249 6.32508 15.6249 6.66675V10.8334Z" fill="white" fill-opacity="0.5"/>
</svg>
