<svg width="20" height="20" viewBox="0 0 20 20" fill="none" xmlns="http://www.w3.org/2000/svg">
<path d="M15.4499 3.43337L10.8666 1.7167C10.3916 1.5417 9.61659 1.5417 9.14159 1.7167L4.55825 3.43337C3.67492 3.7667 2.95825 4.80003 2.95825 5.7417V12.4917C2.95825 13.1667 3.39992 14.0584 3.94159 14.4584L8.52492 17.8834C9.33325 18.4917 10.6583 18.4917 11.4666 17.8834L16.0499 14.4584C16.5916 14.05 17.0333 13.1667 17.0333 12.4917V5.7417C17.0416 4.80003 16.3249 3.7667 15.4499 3.43337ZM12.8999 8.10003L9.31659 11.6834C9.19159 11.8084 9.03325 11.8667 8.87492 11.8667C8.71658 11.8667 8.55825 11.8084 8.43325 11.6834L7.09992 10.3334C6.85825 10.0917 6.85825 9.6917 7.09992 9.45003C7.34159 9.20837 7.74158 9.20837 7.98325 9.45003L8.88325 10.35L12.0249 7.20837C12.2666 6.9667 12.6666 6.9667 12.9083 7.20837C13.1499 7.45003 13.1499 7.85837 12.8999 8.10003Z" fill="white" fill-opacity="0.5"/>
</svg>
