<svg width="20" height="20" viewBox="0 0 20 20" fill="none" xmlns="http://www.w3.org/2000/svg">
<path d="M13.5416 18.7499C14.347 18.7499 14.9999 18.097 14.9999 17.2916C14.9999 16.4862 14.347 15.8333 13.5416 15.8333C12.7362 15.8333 12.0833 16.4862 12.0833 17.2916C12.0833 18.097 12.7362 18.7499 13.5416 18.7499Z" fill="white" fill-opacity="0.5"/>
<path d="M6.87508 18.7499C7.6805 18.7499 8.33341 18.097 8.33341 17.2916C8.33341 16.4862 7.6805 15.8333 6.87508 15.8333C6.06967 15.8333 5.41675 16.4862 5.41675 17.2916C5.41675 18.097 6.06967 18.7499 6.87508 18.7499Z" fill="white" fill-opacity="0.5"/>
<path d="M4.03342 3.28341L3.86675 5.32508C3.83341 5.71675 4.14175 6.04175 4.53341 6.04175H17.2917C17.6417 6.04175 17.9334 5.77508 17.9584 5.42508C18.0667 3.95008 16.9417 2.75008 15.4667 2.75008H5.22508C5.14175 2.38341 4.97508 2.03341 4.71675 1.74175C4.30008 1.30008 3.71675 1.04175 3.11675 1.04175H1.66675C1.32508 1.04175 1.04175 1.32508 1.04175 1.66675C1.04175 2.00841 1.32508 2.29175 1.66675 2.29175H3.11675C3.37508 2.29175 3.61675 2.40008 3.79175 2.58341C3.96675 2.77508 4.05008 3.02508 4.03342 3.28341Z" fill="white" fill-opacity="0.5"/>
<path d="M17.0916 7.29175H4.3083C3.9583 7.29175 3.67496 7.55841 3.64163 7.90008L3.34163 11.5251C3.22496 12.9501 4.34163 14.1667 5.76663 14.1667H15.0333C16.2833 14.1667 17.3833 13.1417 17.475 11.8917L17.75 8.00008C17.7833 7.61675 17.4833 7.29175 17.0916 7.29175Z" fill="white" fill-opacity="0.5"/>
</svg>
